# Blender v2.79 (sub 0) OBJ File: 'box.blend'
# www.blender.org
mtllib box.mtl
o Cube
v 100.000000 -0.999999 -100.000000
v 100.000000 -0.999999 100.000000
v -100.000008 -0.999999 99.999985
v -99.999962 -0.999999 -100.000038
v 100.000038 0.999999 -99.999962
v 99.999939 0.999999 100.000061
v -100.000038 0.999999 99.999962
v -99.999992 0.999999 -100.000000
v 99.000031 0.999999 -98.999977
v 98.999947 0.999999 99.000053
v -99.000000 0.999999 -99.000000
v -99.000031 0.999999 98.999954
v 100.000038 101.000000 -99.999962
v 99.999939 101.000000 100.000061
v -99.999992 101.000000 -100.000000
v -100.000038 101.000000 99.999962
v 99.000031 101.000000 -98.999977
v 98.999947 101.000000 99.000053
v -99.000000 101.000000 -99.000000
v -99.000031 101.000000 98.999954
vn 0.0000 -1.0000 0.0000
vn -1.0000 0.0000 -0.0000
vn 1.0000 0.0000 0.0000
vn -0.0000 -0.0000 1.0000
vn 0.0000 0.0000 -1.0000
vn 0.0000 1.0000 0.0000
usemtl Material.001
s off
f 1//1 2//1 3//1 4//1
f 8//2 7//2 16//2 15//2
f 1//3 5//3 6//3 2//3
f 2//4 6//4 7//4 3//4
f 3//2 7//2 8//2 4//2
f 5//5 1//5 4//5 8//5
f 9//6 11//6 12//6 10//6
f 11//4 9//4 17//4 19//4
f 12//3 11//3 19//3 20//3
f 6//3 5//3 13//3 14//3
f 14//6 13//6 17//6 18//6
f 15//6 16//6 20//6 19//6
f 13//6 15//6 19//6 17//6
f 16//6 14//6 18//6 20//6
f 5//5 8//5 15//5 13//5
f 10//5 12//5 20//5 18//5
f 9//2 10//2 18//2 17//2
f 7//4 6//4 14//4 16//4
