# Blender v2.79 (sub 0) OBJ File: 'box.blend'
# www.blender.org
mtllib plane.mtl
o Cube
v 10.000000 -0.100000 -10.000000
v 10.000000 -0.100000 10.000000
v -10.000001 -0.100000 9.999998
v -9.999996 -0.100000 -10.000004
v 10.000004 0.100000 -9.999996
v 9.999994 0.100000 10.000006
v -10.000004 0.100000 9.999996
v -9.999999 0.100000 -10.000000
v 9.900003 0.100000 -9.899998
v 9.899995 0.100000 9.900005
v -9.900000 0.100000 -9.900000
v -9.900003 0.100000 9.899996
vn 0.0000 -1.0000 0.0000
vn 1.0000 0.0000 0.0000
vn -0.0000 -0.0000 1.0000
vn -1.0000 -0.0000 -0.0000
vn 0.0000 0.0000 -1.0000
vn 0.0000 1.0000 0.0000
usemtl Material
s off
f 1//1 2//1 3//1 4//1
f 1//2 5//2 6//2 2//2
f 2//3 6//3 7//3 3//3
f 3//4 7//4 8//4 4//4
f 5//5 1//5 4//5 8//5
f 9//6 11//6 12//6 10//6
